<svg xmlns="http://www.w3.org/2000/svg" width="960" height="440" viewBox="0 0 960 440" role="img" aria-labelledby="title desc">
<title id="title">Choice &amp; layout</title><desc id="desc">Toolbar groups and view modes, text segments, single and multi pickers, removable badges, accordion and a resize handle inside a scroll container.</desc>
<g font-family="-apple-system, BlinkMacSystemFont, Segoe UI, sans-serif">
<rect x="0.5" y="0.5" width="959" height="439" rx="12" fill="#fafafa" stroke="#d4d4d8"/>
<text x="28" y="38" font-size="22" fill="#27272a" font-weight="600">Choice &amp; layout</text>
<text x="28" y="62" font-size="10" fill="#71717a" font-weight="400">COMPONENT ILLUSTRATIONS · LIGHT PALETTE · NOT NATIVE SCREENSHOTS</text>
<text x="28" y="100" font-size="12" fill="#52525b" font-weight="600">ToolbarIconButton · ButtonGroup · ViewModeSelector</text>
<rect x="28" y="114" width="32" height="32" rx="6" fill="#fafafa" stroke="#d4d4d8"/>
<text x="40" y="135" font-size="13" fill="#27272a" font-weight="400">☷</text>
<rect x="64" y="114" width="32" height="32" rx="6" fill="#e4e4e7" stroke="#d4d4d8"/>
<text x="76" y="135" font-size="13" fill="#27272a" font-weight="400">▦</text>
<rect x="100" y="114" width="32" height="32" rx="6" fill="#fafafa" stroke="#d4d4d8"/>
<text x="112" y="135" font-size="13" fill="#27272a" font-weight="400">□</text>
<path d="M146 120L146 140" stroke="#d4d4d8"/>
<rect x="160" y="114" width="32" height="32" rx="6" fill="#fafafa" stroke="#d4d4d8"/>
<text x="172" y="135" font-size="13" fill="#27272a" font-weight="400">+</text>
<rect x="200" y="114" width="32" height="32" rx="6" fill="#fafafa" stroke="#d4d4d8"/>
<text x="212" y="135" font-size="13" fill="#27272a" font-weight="400">…</text>
<text x="28" y="181" font-size="12" fill="#52525b" font-weight="600">TextSegmentedControl</text>
<rect x="28" y="194" width="296" height="32" rx="6" fill="#f4f4f5" stroke="#d4d4d8"/>
<rect x="31" y="194" width="94" height="32" rx="6" fill="#e4e4e7" stroke="#d4d4d8"/>
<text x="43" y="215" font-size="13" fill="#27272a" font-weight="400">First</text>
<text x="143" y="215" font-size="13" fill="#27272a" font-weight="400">Second</text>
<text x="242" y="215" font-size="13" fill="#27272a" font-weight="400">Third</text>
<text x="28" y="267" font-size="12" fill="#52525b" font-weight="600">FilteredPicker · MultiSelectField · RemovableBadge</text>
<rect x="28" y="281" width="380" height="32" rx="6" fill="#ffffff" stroke="#d4d4d8"/>
<text x="40" y="302" font-size="13" fill="#27272a" font-weight="400">Select an item</text>
<text x="384" y="302" font-size="14" fill="#27272a" font-weight="400">⌄</text>
<rect x="28" y="325" width="380" height="48" rx="6" fill="#ffffff" stroke="#d4d4d8"/>
<rect x="36" y="333" width="94" height="32" rx="6" fill="#f4f4f5" stroke="#d4d4d8"/>
<text x="48" y="354" font-size="13" fill="#27272a" font-weight="400">Alpha ×</text>
<rect x="138" y="333" width="88" height="32" rx="6" fill="#f4f4f5" stroke="#d4d4d8"/>
<text x="150" y="354" font-size="13" fill="#27272a" font-weight="400">Beta ×</text>
<text x="384" y="354" font-size="14" fill="#27272a" font-weight="400">⌄</text>
<text x="472" y="100" font-size="12" fill="#52525b" font-weight="600">Accordion · Item · Trigger · Scrollable · PaneResizeHandle</text>
<rect x="472" y="114" width="456" height="278" rx="6" fill="#ffffff" stroke="#d4d4d8"/>
<text x="488" y="141" font-size="14" fill="#27272a" font-weight="600">⌄  Expanded section</text>
<path d="M488 155H904" stroke="#d4d4d8"/>
<text x="488" y="184" font-size="14" fill="#52525b" font-weight="400">Consumer-supplied content</text>
<rect x="488" y="202" width="394" height="32" rx="6" fill="#ffffff" stroke="#d4d4d8"/>
<text x="500" y="223" font-size="13" fill="#71717a" font-weight="400">Field inside a section</text>
<path d="M488 257H904" stroke="#d4d4d8"/>
<text x="488" y="286" font-size="14" fill="#27272a" font-weight="600">›  Collapsed section</text>
<rect x="914" y="133" width="4" height="168" rx="2" fill="#e4e4e7" stroke="#d4d4d8"/>
<path d="M896 163L896 243" stroke="#d4d4d8"/>
<text x="488" y="354" font-size="13" fill="#52525b" font-weight="400">Sections, scrolling and pane resizing</text>
</g></svg>
